<svg xmlns="http://www.w3.org/2000/svg" height="512pt" version="1.1" viewBox="-80 0 512 512.001" width="512pt">
<g id="surface1">
<path d="M 351.332031 336.332031 C 351.332031 289.410156 333.0625 245.296875 299.882812 212.117188 C 249.160156 161.394531 232.207031 87.738281 255.636719 19.894531 C 257.21875 15.3125 256.488281 10.246094 253.675781 6.292969 C 250.859375 2.34375 246.308594 0 241.457031 0 L 239.933594 0 C 178.507812 0 128.535156 49.972656 128.535156 111.398438 L 128.535156 207.792969 C 128.535156 217.238281 120.847656 224.925781 111.402344 224.925781 C 101.953125 224.925781 94.265625 217.238281 94.265625 207.792969 C 94.265625 202.109375 91.054688 196.914062 85.972656 194.375 C 80.886719 191.835938 74.804688 192.386719 70.257812 195.800781 C 48.925781 211.824219 31.25 232.820312 19.140625 256.519531 C 6.441406 281.382812 0 308.234375 0 336.335938 C 0 432.363281 77.453125 510.625 173.167969 511.96875 C 173.96875 511.988281 174.773438 512 175.582031 512 C 175.609375 512 175.636719 512 175.667969 512 C 175.671875 512 175.667969 512 175.667969 512 C 176.507812 512 177.34375 511.988281 178.179688 511.96875 C 273.886719 510.617188 351.332031 432.355469 351.332031 336.332031 Z M 223.882812 462.03125 C 211.007812 474.90625 193.886719 482 175.671875 482 C 175.671875 482 175.667969 482 175.667969 482 C 157.453125 482 140.328125 474.90625 127.449219 462.027344 C 114.570312 449.148438 107.476562 432.023438 107.476562 413.8125 C 107.476562 395.597656 114.570312 378.476562 127.449219 365.597656 L 175.667969 317.378906 L 223.882812 365.597656 C 250.46875 392.183594 250.46875 435.441406 223.882812 462.03125 Z M 267.042969 449.683594 C 280.816406 414.445312 273.515625 372.800781 245.097656 344.382812 L 186.273438 285.558594 C 183.460938 282.746094 179.648438 281.167969 175.667969 281.167969 C 171.691406 281.167969 167.875 282.746094 165.058594 285.558594 L 106.238281 344.382812 C 87.691406 362.929688 77.476562 387.585938 77.476562 413.8125 C 77.476562 426.253906 79.78125 438.34375 84.179688 449.59375 C 51.15625 422.867188 30 382.027344 30 336.332031 C 30 297.292969 45.132812 260.941406 72.125 233.824219 C 80.578125 246.53125 95.027344 254.925781 111.398438 254.925781 C 137.386719 254.925781 158.53125 233.78125 158.53125 207.792969 L 158.53125 111.398438 C 158.53125 73.054688 185.179688 40.816406 220.933594 32.238281 C 213.765625 63.425781 213.589844 95.917969 220.539062 127.414062 C 229.390625 167.527344 249.492188 204.152344 278.667969 233.332031 C 306.179688 260.84375 321.332031 297.425781 321.332031 336.335938 C 321.332031 382.078125 300.128906 422.960938 267.042969 449.683594 Z M 267.042969 449.683594 " style=" stroke:none;fill-rule:nonzero;fill:rgb(0%,0%,0%);fill-opacity:1;" />
</g>
</svg>